<svg width="28" height="29" viewBox="0 0 28 29" fill="none" xmlns="http://www.w3.org/2000/svg">
    <g clip-path="url(#clip0_1_385)">
        <path
            d="M14 29C10.287 29 6.72602 27.5558 4.10051 24.985C1.475 22.4143 0 18.9276 0 15.292H28C28 18.9276 26.525 22.4143 23.8995 24.985C21.274 27.5558 17.713 29 14 29V29Z"
            fill="#5E00F5" />
        <path
            d="M26.4674 13.7055C26.4203 10.498 25.0859 7.43749 22.7527 5.18558C20.4195 2.93367 17.2749 1.67127 13.9987 1.67127C10.7225 1.67127 7.57797 2.93367 5.24476 5.18558C2.91156 7.43749 1.57717 10.498 1.53004 13.7055H0C0 10.0699 1.475 6.58324 4.10051 4.01249C6.72602 1.44174 10.287 -0.00248623 14 -0.00248623C17.713 -0.00248623 21.274 1.44174 23.8995 4.01249C26.525 6.58324 28 10.0699 28 13.7055H26.4674Z"
            fill="#FF7966" />
        <path
            d="M14 3.43083C16.7825 3.4335 19.4503 4.51679 21.418 6.44301C23.3857 8.36924 24.4928 10.9811 24.4962 13.7055H22.9635C22.9237 11.4033 21.9616 9.20854 20.2847 7.59425C18.6078 5.97996 16.3504 5.07535 13.9987 5.07535C11.6471 5.07535 9.38965 5.97996 7.71277 7.59425C6.03588 9.20854 5.07384 11.4033 5.03395 13.7055H3.50391C3.50732 10.9811 4.61434 8.36924 6.58208 6.44301C8.54982 4.51679 11.2176 3.4335 14 3.43083Z"
            fill="#FFD2CC" />
    </g>
    <defs>
        <clipPath id="clip0_1_385">
            <rect width="28" height="29" fill="white" transform="matrix(1 0 0 -1 0 29)" />
        </clipPath>
    </defs>
</svg>